<?xml version="1.0" standalone="no"?>
<!DOCTYPE svg PUBLIC "-//W3C//DTD SVG 20010904//EN"
 "http://www.w3.org/TR/2001/REC-SVG-20010904/DTD/svg10.dtd">
<svg version="1.0" xmlns="http://www.w3.org/2000/svg"
 width="211.000000pt" height="168.000000pt" viewBox="0 0 211.000000 168.000000"
 preserveAspectRatio="xMidYMid meet">
<metadata>
Created by potrace 1.16, written by Peter Selinger 2001-2019
</metadata>
<g transform="translate(0.000000,168.000000) scale(0.100000,-0.100000)"
fill="#000000" stroke="none">
<path d="M0 840 l0 -840 1055 0 1055 0 0 840 0 840 -1055 0 -1055 0 0 -840z
m1778 628 c9 -9 12 -150 12 -575 l0 -563 34 0 c62 0 86 -15 86 -54 0 -18 -9
-44 -19 -57 l-19 -24 -807 0 c-795 0 -807 0 -821 20 -44 60 -28 99 45 103 l51
3 0 564 c0 499 2 565 16 579 14 14 92 16 713 16 529 0 700 -3 709 -12z"/>
<path d="M377 1443 c-4 -3 -7 -255 -7 -560 l0 -553 695 0 695 0 -2 558 -3 557
-686 3 c-377 1 -689 -1 -692 -5z m897 -73 c41 -15 48 -61 44 -302 -3 -193 -5
-219 -21 -235 -16 -16 -42 -18 -214 -21 -108 -2 -207 -1 -219 2 -53 14 -54 19
-54 281 l0 244 26 20 c25 20 40 21 220 21 106 0 204 -4 218 -10z m-539 -115
l0 -80 -48 -3 c-35 -2 -47 -7 -44 -16 7 -17 -12 -36 -35 -36 -11 0 -18 7 -18
20 0 16 -7 20 -31 20 -60 0 -69 13 -69 94 0 40 3 76 7 80 4 3 59 5 122 4 l116
-3 0 -80z m883 -187 l-3 -253 -95 -3 c-52 -2 -105 0 -117 3 l-23 5 0 244 c0
133 3 246 7 249 3 4 57 7 120 7 l113 0 -2 -252z m-998 -3 c0 -34 1 -35 40 -35
38 0 40 2 40 31 0 20 4 29 13 27 19 -7 20 -36 3 -63 -13 -20 -25 -25 -57 -25
-38 0 -40 -2 -37 -27 3 -25 8 -28 43 -31 22 -2 45 -8 52 -14 16 -13 18 -148 3
-148 -6 0 -10 26 -10 59 0 66 -13 84 -57 79 l-28 -3 -3 -142 -3 -143 277 -2
c211 -2 278 -6 282 -15 3 -10 -59 -13 -287 -13 l-290 0 -3 158 -3 157 -42 3
c-24 2 -43 7 -43 12 0 5 19 10 43 12 38 3 42 6 45 31 3 24 0 27 -25 27 -41 0
-75 27 -71 56 4 32 22 32 26 -1 3 -21 8 -25 38 -25 32 0 34 2 34 35 0 19 5 35
10 35 6 0 10 -16 10 -35z m998 -367 c16 -16 16 -190 0 -206 -8 -8 -64 -12
-184 -12 -147 0 -174 2 -185 16 -22 26 -25 159 -5 189 l16 25 173 0 c121 0
177 -4 185 -12z m-445 -13 c-5 -16 -515 -13 -521 3 -3 10 51 12 260 10 169 -2
262 -7 261 -13z m5 -142 c3 -10 -52 -13 -252 -13 -221 0 -256 -2 -256 -15 0
-13 35 -15 251 -15 196 0 250 -3 247 -12 -4 -10 -70 -14 -276 -16 l-272 -2 0
-30 0 -30 548 -2 c358 -2 546 -6 545 -13 -5 -16 -1295 -14 -1300 3 -4 9 19 12
91 12 l96 0 0 35 c0 33 -2 35 -35 35 -19 0 -35 5 -35 10 0 6 11 10 25 10 16 0
25 6 25 15 0 10 -10 15 -29 15 -30 0 -46 12 -34 24 4 3 153 5 331 4 250 -2
326 -6 330 -15z"/>
<path d="M857 1332 c-10 -10 -17 -33 -17 -51 0 -29 13 -46 106 -135 58 -55
109 -102 113 -104 4 -1 55 43 114 99 103 97 107 102 107 143 0 23 -5 47 -12
54 -8 8 -68 12 -203 12 -173 0 -194 -2 -208 -18z"/>
<path d="M840 1042 c0 -168 3 -192 26 -192 11 0 14 17 14 70 0 92 18 90 22 -2
l3 -73 145 -3 c80 -2 164 0 188 3 l42 6 0 177 0 177 -103 -103 c-56 -56 -106
-102 -111 -102 -5 0 -58 45 -117 101 l-109 101 0 -160z"/>
<path d="M514 1295 c-3 -7 -3 -31 0 -52 3 -21 5 -41 6 -45 0 -10 115 -10 159
-2 30 6 31 8 31 60 l0 54 -95 0 c-74 0 -97 -3 -101 -15z"/>
<path d="M1410 1245 l0 -46 93 3 92 3 0 40 0 40 -92 3 -93 3 0 -46z"/>
<path d="M1428 1173 c-10 -2 -18 -9 -18 -14 0 -5 21 -48 46 -95 l47 -85 49 90
c27 50 46 96 43 101 -6 10 -133 12 -167 3z"/>
<path d="M1410 968 l0 -128 90 0 c66 0 92 4 96 13 2 7 3 65 2 128 l-3 114 -44
-83 c-26 -49 -48 -79 -53 -74 -5 5 -27 42 -48 83 l-39 74 -1 -127z"/>
<path d="M1270 555 c0 -35 0 -35 44 -35 41 0 43 1 38 25 -3 18 0 25 11 25 22
0 31 -18 17 -35 -10 -12 -9 -15 7 -15 11 0 25 11 31 25 7 15 20 25 32 25 12 0
25 -10 32 -25 10 -22 17 -25 65 -25 l54 0 -3 33 -3 32 -80 1 c-44 0 -85 -3
-90 -7 -6 -4 -17 -4 -25 1 -8 6 -41 10 -72 10 l-58 0 0 -35z"/>
<path d="M260 279 c0 -6 5 -19 10 -30 10 -19 30 -19 800 -19 770 0 790 0 800
19 5 11 10 24 10 30 0 8 -243 11 -810 11 -567 0 -810 -3 -810 -11z"/>
</g>
</svg>
